<?xml version="1.0" encoding="utf-8"?>
<!-- Generator: Adobe Illustrator 19.0.0, SVG Export Plug-In . SVG Version: 6.00 Build 0)  -->
<svg version="1.1" id="Layer_1" xmlns="http://www.w3.org/2000/svg" xmlns:xlink="http://www.w3.org/1999/xlink" x="0px" y="0px"
	 viewBox="0 0 708.7 850.4" style="enable-background:new 0 0 708.7 850.4;" xml:space="preserve">
<style type="text/css">
	.st0{clip-path:url(#XMLID_2_);}
	.st1{fill:none;stroke:#7C313F;stroke-width:6;stroke-miterlimit:10;}
	.st2{fill:none;stroke:#7A3340;stroke-width:6;stroke-miterlimit:10;}
	.st3{fill:none;stroke:#773541;stroke-width:6;stroke-miterlimit:10;}
	.st4{fill:none;stroke:#753642;stroke-width:6;stroke-miterlimit:10;}
	.st5{fill:none;stroke:#733843;stroke-width:6;stroke-miterlimit:10;}
	.st6{fill:none;stroke:#703944;stroke-width:6;stroke-miterlimit:10;}
	.st7{fill:none;stroke:#6E3A44;stroke-width:6;stroke-miterlimit:10;}
	.st8{fill:none;stroke:#6C3B45;stroke-width:6;stroke-miterlimit:10;}
	.st9{fill:none;stroke:#693C46;stroke-width:6;stroke-miterlimit:10;}
	.st10{fill:none;stroke:#673D47;stroke-width:6;stroke-miterlimit:10;}
	.st11{fill:none;stroke:#653E48;stroke-width:6;stroke-miterlimit:10;}
	.st12{fill:none;stroke:#623E49;stroke-width:6;stroke-miterlimit:10;}
	.st13{fill:none;stroke:#603F49;stroke-width:6;stroke-miterlimit:10;}
	.st14{fill:none;stroke:#5E404A;stroke-width:6;stroke-miterlimit:10;}
	.st15{fill:none;stroke:#5B404B;stroke-width:6;stroke-miterlimit:10;}
	.st16{fill:none;stroke:#59414C;stroke-width:6;stroke-miterlimit:10;}
	.st17{fill:none;stroke:#57424C;stroke-width:6;stroke-miterlimit:10;}
	.st18{fill:none;stroke:#54424D;stroke-width:6;stroke-miterlimit:10;}
	.st19{fill:none;stroke:#52434E;stroke-width:6;stroke-miterlimit:10;}
	.st20{fill:none;stroke:#4F434E;stroke-width:6;stroke-miterlimit:10;}
	.st21{fill:none;stroke:#4D434F;stroke-width:6;stroke-miterlimit:10;}
	.st22{fill:none;stroke:#4A4450;stroke-width:6;stroke-miterlimit:10;}
	.st23{fill:none;stroke:#484450;stroke-width:6;stroke-miterlimit:10;}
	.st24{fill:none;stroke:#454451;stroke-width:6;stroke-miterlimit:10;}
	.st25{fill:none;stroke:#424551;stroke-width:6;stroke-miterlimit:10;}
	.st26{fill:none;stroke:#404552;stroke-width:6;stroke-miterlimit:10;}
	.st27{fill:none;stroke:#3D4552;stroke-width:6;stroke-miterlimit:10;}
	.st28{fill:none;stroke:#3A4553;stroke-width:6;stroke-miterlimit:10;}
	.st29{fill:none;stroke:#384653;stroke-width:6;stroke-miterlimit:10;}
	.st30{fill:none;stroke:#354654;stroke-width:6;stroke-miterlimit:10;}
	.st31{fill:none;stroke:#324654;stroke-width:6;stroke-miterlimit:10;}
	.st32{fill:none;stroke:#2E4655;stroke-width:6;stroke-miterlimit:10;}
	.st33{fill:none;stroke:#2B4655;stroke-width:6;stroke-miterlimit:10;}
	.st34{fill:none;stroke:#284656;stroke-width:6;stroke-miterlimit:10;}
	.st35{fill:none;stroke:#244656;stroke-width:6;stroke-miterlimit:10;}
	.st36{fill:none;stroke:#204656;stroke-width:6;stroke-miterlimit:10;}
	.st37{fill:none;stroke:#1C4556;stroke-width:6;stroke-miterlimit:10;}
	.st38{fill:none;stroke:#184557;stroke-width:6;stroke-miterlimit:10;}
	.st39{fill:none;stroke:#124557;stroke-width:6;stroke-miterlimit:10;}
	.st40{fill:none;stroke:#0B4557;stroke-width:6;stroke-miterlimit:10;}
	.st41{fill:none;stroke:#024457;stroke-width:6;stroke-miterlimit:10;}
	.st42{fill:none;stroke:#004457;stroke-width:6;stroke-miterlimit:10;}
	.st43{fill:none;stroke:#004358;stroke-width:6;stroke-miterlimit:10;}
	.st44{fill:none;stroke:#004359;stroke-width:6;stroke-miterlimit:10;}
</style>
<g id="XMLID_66_">
	<defs>
		<path id="XMLID_67_" d="M220.4,453.5c-81.3-0.4-121.9-0.4-121.9,0c0,0.2,0.5-19.5,1.5-59.2c1-39.6,2.1-79.3,3.2-118.9l1.5-59.5
			l98.1-0.6c1,1.8,1.8,3.9,2.5,6.3c0.7,2.4,0.7,5.4,0.1,8.9s-2.2,6.6-5,9.4c-5.5,0-13.9,0.2-25.2,0.6c-11.3,0.4-19.7,0.6-25.2,0.6
			c-5.5,0-13.9-0.2-25.2-0.6l2.6,61.8l34.3,0.9c1.8,2.2,3.3,5.6,4.5,10.3c1.3,4.7,1.7,9.8,1.2,15.2c-0.5,5.5-2.4,9.6-5.7,12.3H131
			c-0.4,0-1,7.7-1.9,23.1c-0.9,15.4-1.7,30.9-2.5,46.3l-1.2,23.1l93.2,2.1C226.1,441.1,226.6,447.1,220.4,453.5z M242.4,453.5
			l-0.6-234.1c5.7-5.9,11.3-5.7,17,0.6l25.8,79.1l25.8-76.2c6.8-5.5,12.4-5.1,16.7,1.2c0.2,9.8,0.5,22.6,0.9,38.4
			c0.4,15.8,0.9,40.5,1.6,74c0.7,33.5,1.2,61.4,1.5,83.6s0.3,33.4,0.1,33.4c-0.2,0-1,0-2.3-0.1c-1.4-0.1-2.9-0.2-4.7-0.3
			c-1.8-0.1-3.5-0.2-5.3-0.3c-1.8-0.1-3.2-0.1-4.4,0c-1.2,0.1-1.8,0.3-1.8,0.7l-0.6-21.4c-2.7-92.8-4.3-139.4-4.7-139.7
			c-0.2-0.2-1.8,2.4-4.7,7.8c-2.9,5.4-5.9,10.8-8.8,16.3l-4.1,7.9c-2.3,2-4.2,3-5.4,3.2c-1.3,0.2-2.6-0.4-4.1-1.8
			c-1.5-1.4-2.3-2.1-2.5-2.1L262.9,295c0,2.9,0.1,7,0.3,12.2c0.2,5.2,0.4,14.7,0.7,28.7c0.3,14,0.6,27.1,1,39.3
			c0.4,12.2,0.7,24.7,1,37.4c0.3,12.7,0.5,22.8,0.7,30.2c0.2,7.4,0.3,11,0.3,10.8c0-0.6-4.1-0.8-12.3-0.6L242.4,453.5z M361,219.9
			c4.7-1.9,8.6-3.1,11.9-3.7s7.2-0.4,12,0.6c4.8,1,8.1,1.8,10,2.3c1.9,0.6,5.4,2,10.7,4.2c5.3,2.2,8.5,3.7,9.7,4.2
			c16.2,15.2,22.9,40.7,19.9,76.5c-1.8,21.3-5.5,37.8-11.1,49.5c-2,3.7-3.4,5.1-4.4,4.1l0.9,6.7c0.4,4.5,1.1,10.5,2.1,18.2
			c1,7.6,2,15.1,2.9,22.6c1,7.4,2.1,15.3,3.2,23.7c1.2,8.4,2,14.2,2.3,17.3c0.4,3.1,0.7,5.6,0.9,7.3h-22.9c0,0.2-0.8-4.3-2.5-13.6
			c-1.7-9.3-3.7-20.9-6.2-35c-2.4-14.1-4.2-24.4-5.3-31.1c-1.1-6.6-2-12-2.8-16.1h-2.6h-0.6h-0.6h-0.3h-0.6h-0.6h-0.3h-0.6h-0.6
			h-0.3h-0.6h-0.3h-0.6h-0.3H383h-0.3h-0.6h-0.3h-0.6h-0.3h-0.3h-0.6h-0.3h-0.3h-0.3h-0.6h-0.3H378h-0.3h-0.3h-0.3h-0.3h-0.3h-0.3
			H376h-0.3h-0.3h-0.3h-0.3h-0.3h-0.3c0.2,0,0.3,31.9,0.3,95.8c0-0.2-4-0.1-12,0.1c-8,0.3-12,0.2-12-0.1c0-0.8-1.3-76.1-3.8-225.9
			C351.5,224.3,356.3,221.8,361,219.9z M369.4,261.4c-1.7,14.6-1.9,29.1-0.7,43.2c1.2,14.2,4.6,20.8,10.3,19.8
			c0.4,0,5.4,0.4,14.9,1.2c9.6,0.8,14.4,1.3,14.4,1.5c0.2-1.2,0.9-6.7,2.2-16.6c1.3-9.9,2.1-17.4,2.3-22.6
			c0.3-5.2-0.1-11.9-1.3-20.1s-3.4-15.1-6.7-20.8c-2-0.4-4.3-1.4-7.2-3.1c-2.8-1.7-5.2-3-7-4.1c-1.9-1.1-4.4-1.8-7.8-2.1
			c-3.3-0.3-6.3,0.6-9.1,2.8C372.4,239.8,371,246.7,369.4,261.4z"/>
	</defs>
	<clipPath id="XMLID_2_">
		<use xlink:href="#XMLID_67_"  style="overflow:visible;"/>
	</clipPath>
	<g id="XMLID_14_" class="st0">
		<path id="XMLID_20_" class="st1" d="M170.1,538.6C0,340.5,30,239.5,198.4,85"/>
		<path id="XMLID_65_" class="st2" d="M176.9,538.6C15.4,341.1,36.7,241.7,204.6,85"/>
		<path id="XMLID_64_" class="st3" d="M183.6,538.6C30.8,341.7,43.5,243.9,210.7,85"/>
		<path id="XMLID_63_" class="st4" d="M190.4,538.6C46.2,342.4,50.2,246.2,216.9,85"/>
		<path id="XMLID_62_" class="st5" d="M197.2,538.6C61.6,343,57,248.4,223.1,85"/>
		<path id="XMLID_61_" class="st6" d="M204,538.6C77,343.6,63.7,250.6,229.2,85"/>
		<path id="XMLID_60_" class="st7" d="M210.7,538.6C92.4,344.2,70.4,252.8,235.4,85"/>
		<path id="XMLID_59_" class="st8" d="M217.5,538.6C107.8,344.8,77.2,255,241.6,85"/>
		<path id="XMLID_58_" class="st9" d="M224.3,538.6C123.2,345.5,83.9,257.2,247.7,85"/>
		<path id="XMLID_57_" class="st10" d="M231.1,538.6C138.6,346.1,90.7,259.5,253.9,85"/>
		<path id="XMLID_56_" class="st11" d="M237.9,538.6C154,346.7,97.4,261.7,260,85"/>
		<path id="XMLID_55_" class="st12" d="M244.6,538.6C169.4,347.3,104.1,263.9,266.2,85"/>
		<path id="XMLID_54_" class="st13" d="M251.4,538.6c-66.6-190.6-140.6-272.5,21-453.5"/>
		<path id="XMLID_53_" class="st14" d="M258.2,538.6c-58-190-140.6-270.3,20.3-453.5"/>
		<path id="XMLID_52_" class="st15" d="M265,538.6c-49.3-189.4-140.6-268,19.7-453.5"/>
		<path id="XMLID_51_" class="st16" d="M271.8,538.6C231,349.8,131.1,272.8,290.9,85"/>
		<path id="XMLID_50_" class="st17" d="M278.5,538.6C246.4,350.4,137.8,275,297,85"/>
		<path id="XMLID_49_" class="st18" d="M285.3,538.6C261.8,351,144.6,277.2,303.2,85"/>
		<path id="XMLID_48_" class="st19" d="M292.1,538.6C277.2,351.7,151.3,279.4,309.3,85"/>
		<path id="XMLID_47_" class="st20" d="M298.9,538.6C292.6,352.3,158,281.6,315.5,85"/>
		<path id="XMLID_46_" class="st21" d="M305.6,538.6c2.4-185.7-140.9-254.7,16-453.5"/>
		<path id="XMLID_45_" class="st22" d="M312.4,538.6c11-185.1-140.9-252.5,15.4-453.5"/>
		<path id="XMLID_44_" class="st23" d="M319.2,538.6C338.8,354.1,178.3,288.3,334,85"/>
		<path id="XMLID_43_" class="st24" d="M326,538.6C354.3,354.8,185,290.5,340.2,85"/>
		<path id="XMLID_42_" class="st25" d="M332.8,538.6c36.9-183.2-141-245.9,13.6-453.5"/>
		<path id="XMLID_41_" class="st26" d="M339.5,538.6C385.1,356,198.5,294.9,352.5,85"/>
		<path id="XMLID_40_" class="st27" d="M346.3,538.6c54.1-182-141.1-241.4,12.3-453.5"/>
		<path id="XMLID_39_" class="st28" d="M353.1,538.6C415.9,357.2,212,299.4,364.8,85"/>
		<path id="XMLID_38_" class="st29" d="M359.9,538.6C431.3,357.8,218.7,301.6,371,85"/>
		<path id="XMLID_37_" class="st30" d="M366.7,538.6c80-180.1-141.2-234.8,10.5-453.5"/>
		<path id="XMLID_36_" class="st31" d="M373.4,538.6C462.1,359.1,232.2,306,383.3,85"/>
		<path id="XMLID_35_" class="st32" d="M380.2,538.6c97.3-178.9-141.3-230.3,9.2-453.5"/>
		<path id="XMLID_34_" class="st33" d="M387,538.6C492.9,360.3,245.7,310.5,395.6,85"/>
		<path id="XMLID_33_" class="st34" d="M393.8,538.6c114.5-177.6-141.4-225.9,8-453.5"/>
		<path id="XMLID_32_" class="st35" d="M400.5,538.6c123.1-177-141.4-223.7,7.4-453.5"/>
		<path id="XMLID_31_" class="st36" d="M407.3,538.6C539.1,362.2,265.9,317.1,414.1,85"/>
		<path id="XMLID_30_" class="st37" d="M414.1,538.6C554.5,362.8,272.6,319.3,420.3,85"/>
		<path id="XMLID_29_" class="st38" d="M420.9,538.6c149-175.2-141.5-217,5.5-453.5"/>
		<path id="XMLID_28_" class="st39" d="M427.7,538.6C585.3,364,286.1,323.8,432.6,85"/>
		<path id="XMLID_27_" class="st40" d="M434.4,538.6C600.7,364.7,292.8,326,438.8,85"/>
		<path id="XMLID_26_" class="st41" d="M441.2,538.6C616.1,365.3,299.6,328.2,444.9,85"/>
		<path id="XMLID_25_" class="st42" d="M448,538.6C631.5,365.9,306.3,330.4,451.1,85"/>
		<path id="XMLID_24_" class="st42" d="M454.8,538.6C646.9,366.5,313,332.6,457.2,85"/>
		<path id="XMLID_23_" class="st43" d="M461.6,538.6C662.3,367.1,319.8,334.8,463.4,85"/>
		<path id="XMLID_22_" class="st43" d="M468.3,538.6C677.7,367.8,326.5,337.1,469.6,85"/>
		<path id="XMLID_21_" class="st43" d="M475.1,538.6c218-170.2-141.9-199.3,0.6-453.5"/>
		<path id="XMLID_19_" class="st44" d="M481.9,538.6C708.5,369,340,341.5,481.9,85"/>
	</g>
</g>
</svg>
